<svg xmlns="http://www.w3.org/2000/svg" viewBox="0 0 267.52 138"><defs><style>.cls-1{fill:#fff61b;}.cls-2{fill:#818285;}.cls-3{fill:#231f20;}</style></defs><g id="Calque_2" data-name="Calque 2"><g id="Calque_1-2" data-name="Calque 1"><rect class="cls-1" x="8.82" y="13.92" width="10.46" height="10.46" rx="1.42"/><rect class="cls-2" x="26.44" y="30.31" width="6.11" height="6.11" rx="0.85"/><rect class="cls-1" x="217.65" y="130.39" width="7.61" height="7.61" rx="0.99"/><path class="cls-3" d="M64,80.51a11.91,11.91,0,0,0-2.49-4.23,11.28,11.28,0,0,0-4-2.77,13.16,13.16,0,0,0-5.26-1h-6.6c-.11,0-.22,0-.34,0h-6.9a2,2,0,0,1-1.43-.61L19.21,53.44a2,2,0,0,1-.55-1.36V40.22a3.76,3.76,0,0,0-3.75-3.75H3.75A3.76,3.76,0,0,0,0,40.22V51.38a3.76,3.76,0,0,0,3.75,3.75h11a2,2,0,0,1,1.43.61L34.16,74.27a2,2,0,0,1,.54,1.36v7.53a21,21,0,0,0,0,2.28v23.4H40.3v0h4.31V99.71h7.7a13.18,13.18,0,0,0,5.32-1,11.43,11.43,0,0,0,4-2.88,12.38,12.38,0,0,0,2.46-4.38,17.35,17.35,0,0,0,.83-5.51A16.2,16.2,0,0,0,64,80.51Zm-10.38,9a4.52,4.52,0,0,1-3.44,1.36H44.62V81.37h5.59a4.74,4.74,0,0,1,3.41,1.25A4.41,4.41,0,0,1,54.92,86,4.94,4.94,0,0,1,53.65,89.49Z"/><path class="cls-3" d="M95.64,96.22a11.23,11.23,0,0,0,3.47-4.87,18.82,18.82,0,0,0,1.13-6.65,14,14,0,0,0-.83-5,10.63,10.63,0,0,0-6.12-6.35,13,13,0,0,0-4.9-.88H70.1V108.8h9.7V98.6h5.26A3.65,3.65,0,0,1,87.31,100a10.41,10.41,0,0,1,1.41,2.57L91,108.8h10.42l-3.66-8.92A15.34,15.34,0,0,0,95.64,96.22Zm-6.2-7.78a3,3,0,0,1-2.71,1.24H79.8V81.37l6.93-.05a3.2,3.2,0,0,1,2.65,1.1,4.45,4.45,0,0,1,.89,2.89A5.57,5.57,0,0,1,89.44,88.44Z"/><path class="cls-3" d="M136.51,77.13a17,17,0,0,0-5.79-3.93,20.55,20.55,0,0,0-15,0A17,17,0,0,0,110,77.13a17.4,17.4,0,0,0-3.71,6,21.28,21.28,0,0,0-1.3,7.56,20.85,20.85,0,0,0,1.33,7.56,17.3,17.3,0,0,0,3.74,6,17.06,17.06,0,0,0,5.76,3.9,18.85,18.85,0,0,0,7.45,1.42,19.07,19.07,0,0,0,7.48-1.42,17.19,17.19,0,0,0,5.79-3.9,17.45,17.45,0,0,0,3.74-6,22.15,22.15,0,0,0,0-15.12A17.77,17.77,0,0,0,136.51,77.13Zm-5.46,17.32a9.59,9.59,0,0,1-1.6,3.1,7.3,7.3,0,0,1-2.64,2.08,8.2,8.2,0,0,1-3.57.75,7.66,7.66,0,0,1-6.15-2.86,9.26,9.26,0,0,1-1.61-3.07,13.2,13.2,0,0,1,0-7.54,9.61,9.61,0,0,1,1.61-3.1,7.5,7.5,0,0,1,2.6-2.1,7.82,7.82,0,0,1,3.55-.78,7.94,7.94,0,0,1,3.57.78,7.46,7.46,0,0,1,2.64,2.1,9.59,9.59,0,0,1,1.6,3.1,13,13,0,0,1,0,7.54Z"/><path class="cls-3" d="M157.37,95a6.82,6.82,0,0,1-1.05,3.85,3.72,3.72,0,0,1-3.33,1.58,34.6,34.6,0,0,1-4.07-.25,17.63,17.63,0,0,1-4-1l-2,8.7a22.53,22.53,0,0,0,5.29,1.32,42.8,42.8,0,0,0,5.46.34,14.24,14.24,0,0,0,5.56-1,11.87,11.87,0,0,0,4.21-2.88,12.37,12.37,0,0,0,2.66-4.43,16.88,16.88,0,0,0,.92-5.68v-23h-9.7Z"/><polygon class="cls-3" points="183.86 95.17 199.65 95.17 199.65 86.3 183.86 86.3 183.86 81.37 200.75 81.37 200.75 72.51 174.16 72.51 174.16 108.8 200.92 108.8 200.92 99.93 183.86 99.93 183.86 95.17"/><path class="cls-3" d="M264.56,90.79q-3-2.82-9-4.49-5.1-1.38-5.1-3.26a1.6,1.6,0,0,1,1-1.61,5.15,5.15,0,0,1,2.16-.44,49.09,49.09,0,0,1,5.45.3,33.63,33.63,0,0,1,5.29,1l1.89-8.58a19.13,19.13,0,0,0-6.37-1.67c-2.22-.18-4.43-.27-6.65-.27a19.07,19.07,0,0,0-5.21.69,13.22,13.22,0,0,0-4.27,2A9.83,9.83,0,0,0,240.87,78a10.46,10.46,0,0,0-1.05,4.79,11.16,11.16,0,0,0,3,8.06c2,2.09,5.14,3.66,9.39,4.74a22.81,22.81,0,0,1,3.8,1.16c.83.37,1.24.79,1.24,1.27a2,2,0,0,1-.36,1.25,2.31,2.31,0,0,1-1,.72,5.45,5.45,0,0,1-1.35.36,10.61,10.61,0,0,1-1.47.11,61,61,0,0,1-12.3-1.27l-1.94,8.7a49.11,49.11,0,0,0,7.34,1.3q3.69.36,7.45.36a19.37,19.37,0,0,0,5.35-.72,12.71,12.71,0,0,0,4.4-2.19,10.42,10.42,0,0,0,4.1-8.56A9.59,9.59,0,0,0,264.56,90.79Z"/><path class="cls-3" d="M240.81,115.54h-6.87a1.23,1.23,0,0,1-.89-.38l-6.61-6.94a3.34,3.34,0,0,1-.92-2.2V81.37h10.69V72.51H205.08v8.86h10.75V108.8h7.1a3.39,3.39,0,0,1,1.75,1l6.5,6.82a1.24,1.24,0,0,1,.34.85v7.39a2.34,2.34,0,0,0,2.34,2.34h6.95a2.34,2.34,0,0,0,2.34-2.34v-7A2.34,2.34,0,0,0,240.81,115.54Z"/><path class="cls-3" d="M60.42,24.88,75.28,62.17H64.87l-2.34-6.49H47.84l-2.33,6.49H35.09L50,24.88ZM59.23,46.57l-4-11.16-4,11.16Z"/><path class="cls-3" d="M79.26,24.88H97.14a13.52,13.52,0,0,1,5.41,1,11.8,11.8,0,0,1,4.07,2.84,12.39,12.39,0,0,1,2.56,4.36,16.74,16.74,0,0,1,.88,5.55,17.92,17.92,0,0,1-.85,5.66,12.75,12.75,0,0,1-2.54,4.5,11.41,11.41,0,0,1-4.07,3,13.43,13.43,0,0,1-5.46,1.06H89.23v9.33h-10Zm10,18.85H95a4.62,4.62,0,0,0,3.53-1.4,5.07,5.07,0,0,0,1.31-3.61,4.56,4.56,0,0,0-1.34-3.45A4.88,4.88,0,0,0,95,34H89.23Z"/><path class="cls-3" d="M115.41,24.88h17.88a13.44,13.44,0,0,1,5.4,1,11.61,11.61,0,0,1,4.07,2.84,12.41,12.41,0,0,1,2.57,4.36,17,17,0,0,1,.88,5.55,18.21,18.21,0,0,1-.85,5.66,12.75,12.75,0,0,1-2.54,4.5,11.5,11.5,0,0,1-4.07,3,13.46,13.46,0,0,1-5.46,1.06h-7.92v9.33h-10Zm10,18.85h5.75a4.61,4.61,0,0,0,3.53-1.4A5,5,0,0,0,136,38.72a4.53,4.53,0,0,0-1.34-3.45,4.85,4.85,0,0,0-3.5-1.28h-5.75Z"/><path class="cls-3" d="M178.88,24.88V34H161.52v5.07h16.22v9.11H161.52v4.89h17.53v9.11H151.56V24.88Z"/><path class="cls-3" d="M195.62,24.88V53.06h15.2v9.11H185.65V24.88Z"/><path class="cls-3" d="M228.35,53.58a9.9,9.9,0,0,0,1.51-.12,5.77,5.77,0,0,0,1.39-.37,2.37,2.37,0,0,0,1-.74,2.09,2.09,0,0,0,.37-1.28c0-.49-.43-.93-1.28-1.31a23.74,23.74,0,0,0-3.9-1.19q-6.56-1.65-9.65-4.87a11.46,11.46,0,0,1-3.11-8.29,10.64,10.64,0,0,1,1.09-4.92,9.85,9.85,0,0,1,3-3.53,13.51,13.51,0,0,1,4.38-2.11,19.65,19.65,0,0,1,5.35-.71q3.42,0,6.83.29a19.65,19.65,0,0,1,6.55,1.71L239.9,35a34.49,34.49,0,0,0-5.43-1.05,49.43,49.43,0,0,0-5.61-.32,5.28,5.28,0,0,0-2.22.46,1.66,1.66,0,0,0-1,1.65q0,1.94,5.24,3.36,6.21,1.71,9.25,4.61a9.86,9.86,0,0,1,3.05,7.46A10.88,10.88,0,0,1,242,56.22a11.11,11.11,0,0,1-3.07,3.7,13,13,0,0,1-4.53,2.25,19.68,19.68,0,0,1-5.49.74c-2.58,0-5.14-.12-7.66-.37a48.09,48.09,0,0,1-7.54-1.34l2-8.93A62.88,62.88,0,0,0,228.35,53.58Z"/><path class="cls-3" d="M69.42,121.45a.23.23,0,0,1,.25-.24h5.56c2.79,0,4.64,1.19,5.39,3.52.3.9.44,1.8.44,4.74s-.14,3.84-.44,4.74c-.75,2.33-2.6,3.52-5.39,3.52H69.67a.23.23,0,0,1-.25-.24Zm2.31,14.26h3c2,0,3.23-.65,3.76-2.26a12,12,0,0,0,.34-4,12.09,12.09,0,0,0-.34-4c-.53-1.6-1.77-2.26-3.76-2.26h-3a.13.13,0,0,0-.15.15v12.2C71.58,135.67,71.63,135.71,71.73,135.71Z"/><path class="cls-3" d="M84.43,132V121.45a.23.23,0,0,1,.24-.24h1.68a.22.22,0,0,1,.24.24V132c0,2.67,1.48,4,3.7,4S94,134.62,94,132v-10.5a.22.22,0,0,1,.24-.24h1.68a.23.23,0,0,1,.24.24V132c0,3.89-2.21,6-5.83,6S84.43,135.86,84.43,132Z"/><path class="cls-3" d="M105.32,129.47a14.12,14.12,0,0,1,.43-4.64,5.32,5.32,0,0,1,5.49-3.89,5.51,5.51,0,0,1,5.3,3.33.24.24,0,0,1-.1.32l-1.45.7a.24.24,0,0,1-.34-.12,3.62,3.62,0,0,0-3.41-2.21,3.31,3.31,0,0,0-3.42,2.43,13.37,13.37,0,0,0-.32,4.08,13.37,13.37,0,0,0,.32,4.08,3.31,3.31,0,0,0,3.42,2.43,3.62,3.62,0,0,0,3.41-2.21.24.24,0,0,1,.34-.12l1.45.7a.24.24,0,0,1,.1.32,5.53,5.53,0,0,1-5.3,3.33,5.32,5.32,0,0,1-5.49-3.89A14.12,14.12,0,0,1,105.32,129.47Z"/><path class="cls-3" d="M119.06,129.47a13.74,13.74,0,0,1,.44-4.64,5.31,5.31,0,0,1,5.49-3.89,5.52,5.52,0,0,1,5.3,3.33.25.25,0,0,1-.1.32l-1.46.7a.25.25,0,0,1-.34-.12A3.59,3.59,0,0,0,125,123a3.32,3.32,0,0,0-3.43,2.43,13.91,13.91,0,0,0-.31,4.08,13.91,13.91,0,0,0,.31,4.08A3.32,3.32,0,0,0,125,136a3.59,3.59,0,0,0,3.4-2.21.25.25,0,0,1,.34-.12l1.46.7a.25.25,0,0,1,.1.32A5.54,5.54,0,0,1,125,138a5.31,5.31,0,0,1-5.49-3.89A13.74,13.74,0,0,1,119.06,129.47Z"/><path class="cls-3" d="M132.81,129.47a14.12,14.12,0,0,1,.43-4.64,5.32,5.32,0,0,1,5.5-3.89,5.5,5.5,0,0,1,5.29,3.33.24.24,0,0,1-.09.32l-1.46.7a.24.24,0,0,1-.34-.12,3.61,3.61,0,0,0-3.4-2.21,3.31,3.31,0,0,0-3.43,2.43,13.37,13.37,0,0,0-.32,4.08,13.37,13.37,0,0,0,.32,4.08,3.31,3.31,0,0,0,3.43,2.43,3.61,3.61,0,0,0,3.4-2.21.24.24,0,0,1,.34-.12l1.46.7a.24.24,0,0,1,.09.32,5.51,5.51,0,0,1-5.29,3.33,5.32,5.32,0,0,1-5.5-3.89A14.12,14.12,0,0,1,132.81,129.47Z"/><path class="cls-3" d="M151.41,121.45c.05-.15.12-.24.29-.24h1.58a.31.31,0,0,1,.32.24l5.66,16a.16.16,0,0,1-.17.24h-1.7a.3.3,0,0,1-.32-.24l-1.26-3.6h-6.68l-1.27,3.6c-.07.17-.16.24-.31.24h-1.7a.16.16,0,0,1-.17-.24Zm3.7,10.45-2.6-7.51h0l-2.63,7.51Z"/><path class="cls-3" d="M160.64,132v-1.41a.23.23,0,0,1,.24-.24h6.47a.23.23,0,0,1,.24.24V132a.23.23,0,0,1-.24.25h-6.47A.23.23,0,0,1,160.64,132Z"/><path class="cls-3" d="M170.77,121.45a.22.22,0,0,1,.24-.24h5.86c3.32,0,5,1.7,5,4.35a3.56,3.56,0,0,1-2.21,3.59v0a3.83,3.83,0,0,1,2.5,3.82c0,3.08-1.95,4.71-5.4,4.71H171a.23.23,0,0,1-.24-.24Zm6,6.9c1.82,0,2.89-1,2.89-2.57s-1.07-2.6-2.89-2.6h-3.74c-.1,0-.15,0-.15.14v4.89c0,.09,0,.14.15.14Zm-3.74,7.41h3.86c2,0,3-1.07,3-2.72s-1.07-2.72-3-2.72h-3.86a.13.13,0,0,0-.15.15v5.15C172.93,135.71,173,135.76,173.08,135.76Z"/><path class="cls-3" d="M189.08,137.73a.23.23,0,0,1-.24-.24V123.37a.13.13,0,0,0-.15-.15h-4.52a.23.23,0,0,1-.24-.24v-1.53a.23.23,0,0,1,.24-.24h11.5a.23.23,0,0,1,.24.24V123a.23.23,0,0,1-.24.24h-4.52a.13.13,0,0,0-.15.15v14.12a.23.23,0,0,1-.24.24Z"/><path class="cls-3" d="M198.72,137.73a.23.23,0,0,1-.24-.24v-16a.23.23,0,0,1,.24-.24h5.88c3.18,0,5.25,1.94,5.25,4.93s-2.07,4.93-5.25,4.93h-3.81a.13.13,0,0,0-.15.15v6.27a.23.23,0,0,1-.24.24Zm9-11.59c0-1.8-1.19-2.92-3.23-2.92h-3.69a.13.13,0,0,0-.15.15v5.54a.13.13,0,0,0,.15.15h3.69C206.52,129.06,207.71,127.94,207.71,126.14Z"/><path class="cls-3" d="M34.92.49a.22.22,0,0,1,.24-.23h1.62A.22.22,0,0,1,37,.49V14.17a.13.13,0,0,0,.14.14h7.63a.22.22,0,0,1,.23.23V16a.22.22,0,0,1-.23.24H35.16a.22.22,0,0,1-.24-.24Z"/><path class="cls-3" d="M47.57.49a.22.22,0,0,1,.24-.23h9.62a.22.22,0,0,1,.24.23V2a.22.22,0,0,1-.24.23H49.81a.12.12,0,0,0-.14.14V7.06a.12.12,0,0,0,.14.14h6.47a.22.22,0,0,1,.23.24V8.92a.22.22,0,0,1-.23.23H49.81c-.1,0-.14,0-.14.15v4.87a.12.12,0,0,0,.14.14h7.62a.22.22,0,0,1,.24.23V16a.23.23,0,0,1-.24.24H47.81a.23.23,0,0,1-.24-.24Z"/><path class="cls-3" d="M60,14.52a.25.25,0,0,1,0-.35l1-1.23a.21.21,0,0,1,.33,0,7.37,7.37,0,0,0,4.47,1.65c2.21,0,3.53-1.11,3.53-2.73,0-1.37-.78-2.29-3.34-2.62l-.8-.11c-3.11-.43-4.71-1.91-4.71-4.43,0-2.84,2-4.68,5.22-4.68a8.45,8.45,0,0,1,4.87,1.48c.12.1.15.21,0,.33l-.8,1.3a.24.24,0,0,1-.33,0A7.06,7.06,0,0,0,65.68,2c-2,0-3,1.06-3,2.59,0,1.34.89,2.24,3.36,2.57l.78.11c3.13.43,4.71,1.86,4.71,4.48,0,2.79-2,4.82-5.84,4.82A8.78,8.78,0,0,1,60,14.52Z"/><path class="cls-3" d="M258.28,46.12a.27.27,0,0,1,.28-.23h1.53a.29.29,0,0,1,.3.23l5.49,15.53c0,.15,0,.24-.17.24h-1.64a.29.29,0,0,1-.31-.24l-1.22-3.48h-6.48l-1.22,3.48c-.07.17-.16.24-.31.24h-1.64c-.14,0-.21-.09-.17-.24Zm.4-2.16a.46.46,0,0,1-.43-.21l-2.51-2.52c-.12-.12-.05-.24.09-.24h1.65a.52.52,0,0,1,.44.24l2,2.49c.12.12.05.24-.09.24Zm3.17,12.28L259.34,49h0l-2.54,7.27Z"/></g></g></svg>