<?xml version="1.0" encoding="utf-8"?>
<!-- Generator: $$$/GeneralStr/196=Adobe Illustrator 27.6.0, SVG Export Plug-In . SVG Version: 6.00 Build 0)  -->
<svg version="1.1" id="Calque_1" xmlns="http://www.w3.org/2000/svg" xmlns:xlink="http://www.w3.org/1999/xlink" x="0px" y="0px"
	 viewBox="0 0 267.5 138" style="enable-background:new 0 0 267.5 138;" xml:space="preserve">
<style type="text/css">
	.st0{fill:#FFF61B;}
	.st1{fill:#818285;}
	.st2{fill:#FFFFFF;}
</style>
<g id="Calque_2_00000002366665334119695730000003929803879601434780_">
	<g id="Calque_1-2">
		<path class="st0" d="M10.2,13.9h7.6c0.8,0,1.4,0.6,1.4,1.4V23c0,0.8-0.6,1.4-1.4,1.4h-7.6c-0.8,0-1.4-0.6-1.4-1.4v-7.6
			C8.8,14.6,9.5,13.9,10.2,13.9z"/>
		<path class="st1" d="M27.3,30.3h4.4c0.5,0,0.9,0.4,0.9,0.9v4.4c0,0.5-0.4,0.8-0.9,0.8h-4.4c-0.5,0-0.9-0.4-0.9-0.8v-4.4
			C26.4,30.7,26.8,30.3,27.3,30.3z"/>
		<path class="st0" d="M218.6,130.4h5.6c0.5,0,1,0.4,1,1v5.6c0,0.5-0.4,1-1,1h-5.6c-0.5,0-1-0.4-1-1v-5.6
			C217.6,130.8,218.1,130.4,218.6,130.4z"/>
		<path class="st2" d="M64,80.5c-0.5-1.6-1.4-3-2.5-4.2c-1.1-1.2-2.5-2.1-4-2.8c-1.7-0.7-3.5-1-5.3-1h-6.6c-0.1,0-0.2,0-0.3,0h-6.9
			c-0.5,0-1.1-0.2-1.4-0.6L19.2,53.4c-0.3-0.4-0.5-0.9-0.5-1.4V40.2c0-2.1-1.7-3.7-3.8-3.8H3.8c-2.1,0-3.7,1.7-3.8,3.8v11.2
			c0,2.1,1.7,3.7,3.8,3.8h11c0.5,0,1.1,0.2,1.4,0.6l18,18.5c0.3,0.4,0.5,0.9,0.5,1.4v7.5c0,0.8,0,1.5,0,2.3v23.4h5.6l0,0h4.3v-9.1
			h7.7c1.8,0,3.6-0.3,5.3-1c1.5-0.7,2.9-1.6,4-2.9c1.1-1.3,1.9-2.8,2.5-4.4c0.6-1.8,0.9-3.6,0.8-5.5C64.9,84.1,64.6,82.3,64,80.5z
			 M53.6,89.5c-0.9,0.9-2.2,1.4-3.4,1.4h-5.6v-9.5h5.6c1.3-0.1,2.5,0.4,3.4,1.2c0.9,0.9,1.4,2.1,1.3,3.4
			C55,87.3,54.5,88.5,53.6,89.5L53.6,89.5z"/>
		<path class="st2" d="M95.6,96.2c1.6-1.3,2.8-3,3.5-4.9c0.8-2.1,1.2-4.4,1.1-6.7c0-1.7-0.3-3.4-0.8-5c-1-2.9-3.3-5.2-6.1-6.3
			c-1.6-0.6-3.2-0.9-4.9-0.9H70.1v36.3h9.7V98.6h5.3c0.9,0.2,1.7,0.7,2.2,1.4c0.6,0.8,1.1,1.7,1.4,2.6l2.3,6.2h10.4l-3.7-8.9
			C97.2,98.6,96.5,97.3,95.6,96.2z M89.4,88.4c-0.6,0.9-1.7,1.3-2.7,1.2h-6.9v-8.3l6.9-0.1c1-0.1,2,0.3,2.7,1.1
			c0.6,0.8,0.9,1.9,0.9,2.9C90.3,86.4,90,87.5,89.4,88.4z"/>
		<path class="st2" d="M136.5,77.1c-1.6-1.7-3.6-3-5.8-3.9c-4.8-1.9-10.2-1.9-15,0c-2.2,0.9-4.1,2.2-5.7,3.9c-1.6,1.7-2.9,3.8-3.7,6
			c-0.9,2.4-1.3,5-1.3,7.6c0,2.6,0.4,5.1,1.3,7.6c0.8,2.2,2.1,4.3,3.7,6c1.6,1.7,3.6,3,5.8,3.9c2.4,1,4.9,1.5,7.4,1.4
			c2.6,0,5.1-0.4,7.5-1.4c2.2-0.9,4.1-2.2,5.8-3.9c1.6-1.7,2.9-3.8,3.7-6c1.8-4.9,1.8-10.2,0-15.1C139.4,80.9,138.2,78.9,136.5,77.1
			z M131,94.4c-0.3,1.1-0.9,2.2-1.6,3.1c-0.7,0.9-1.6,1.6-2.6,2.1c-1.1,0.5-2.3,0.8-3.6,0.8c-2.4,0.1-4.7-1-6.2-2.9
			c-0.7-0.9-1.3-2-1.6-3.1c-0.7-2.5-0.7-5.1,0-7.5c0.3-1.1,0.9-2.2,1.6-3.1c0.7-0.9,1.6-1.6,2.6-2.1c1.1-0.5,2.3-0.8,3.6-0.8
			c1.2,0,2.5,0.2,3.6,0.8c1,0.5,1.9,1.2,2.6,2.1c0.7,0.9,1.3,2,1.6,3.1C131.8,89.4,131.8,92,131,94.4z"/>
		<path class="st2" d="M157.4,95c0,1.4-0.3,2.7-1.1,3.8c-0.8,1.1-2,1.7-3.3,1.6c-1.4,0-2.7-0.1-4.1-0.2c-1.4-0.2-2.7-0.5-4-1l-2,8.7
			c1.7,0.7,3.5,1.1,5.3,1.3c1.8,0.2,3.6,0.3,5.5,0.3c1.9,0,3.8-0.3,5.6-1c1.6-0.6,3-1.6,4.2-2.9c1.2-1.3,2.1-2.8,2.7-4.4
			c0.6-1.8,0.9-3.7,0.9-5.7v-23h-9.7L157.4,95z"/>
		<polygon class="st2" points="183.9,95.2 199.6,95.2 199.6,86.3 183.9,86.3 183.9,81.4 200.8,81.4 200.8,72.5 174.2,72.5 
			174.2,108.8 200.9,108.8 200.9,99.9 183.9,99.9 		"/>
		<path class="st2" d="M264.6,90.8c-2-1.9-5-3.4-9-4.5c-3.4-0.9-5.1-2-5.1-3.3c-0.1-0.7,0.4-1.3,1-1.6c0.7-0.3,1.4-0.5,2.2-0.4
			c1.8,0,3.6,0.1,5.5,0.3c1.8,0.2,3.6,0.5,5.3,1l1.9-8.6c-2-0.9-4.2-1.5-6.4-1.7c-2.2-0.2-4.4-0.3-6.6-0.3c-1.8,0-3.5,0.2-5.2,0.7
			c-1.5,0.4-3,1.1-4.3,2c-1.2,0.9-2.2,2.2-2.9,3.5c-0.7,1.5-1.1,3.1-1.1,4.8c-0.1,3,1,5.9,3,8.1c2,2.1,5.1,3.7,9.4,4.7
			c1.3,0.3,2.6,0.7,3.8,1.2c0.8,0.4,1.2,0.8,1.2,1.3c0,0.4-0.1,0.9-0.4,1.2c-0.3,0.3-0.6,0.6-1,0.7c-0.4,0.2-0.9,0.3-1.4,0.4
			c-0.5,0.1-1,0.1-1.5,0.1c-4.1,0-8.3-0.4-12.3-1.3l-1.9,8.7c2.4,0.6,4.9,1.1,7.3,1.3c2.5,0.2,4.9,0.4,7.4,0.4
			c1.8,0,3.6-0.2,5.4-0.7c1.6-0.4,3.1-1.2,4.4-2.2c2.7-2,4.2-5.2,4.1-8.6C267.6,95.3,266.5,92.7,264.6,90.8z"/>
		<path class="st2" d="M240.8,115.5h-6.9c-0.3,0-0.7-0.1-0.9-0.4l-6.6-6.9c-0.6-0.6-0.9-1.4-0.9-2.2V81.4h10.7v-8.9h-31.1v8.9h10.8
			v27.4h7.1c0.7,0.1,1.3,0.5,1.8,1l6.5,6.8c0.2,0.2,0.3,0.5,0.3,0.8v7.4c0,1.3,1,2.3,2.3,2.3h6.9c1.3,0,2.3-1,2.3-2.3v-7
			C243.1,116.6,242.1,115.5,240.8,115.5z"/>
		<path class="st2" d="M60.4,24.9l14.9,37.3H64.9l-2.3-6.5H47.8l-2.3,6.5H35.1L50,24.9H60.4z M59.2,46.6l-4-11.2l-4,11.2H59.2z"/>
		<path class="st2" d="M79.3,24.9h17.9c1.9,0,3.7,0.3,5.4,1c1.5,0.6,2.9,1.6,4.1,2.8c1.1,1.3,2,2.7,2.6,4.4c0.6,1.8,0.9,3.7,0.9,5.5
			c0,1.9-0.3,3.8-0.8,5.7c-0.5,1.7-1.4,3.2-2.5,4.5c-1.1,1.3-2.5,2.3-4.1,3c-1.7,0.7-3.6,1.1-5.5,1.1h-7.9v9.3h-10L79.3,24.9z
			 M89.3,43.7H95c1.3,0.1,2.6-0.4,3.5-1.4c0.9-1,1.4-2.3,1.3-3.6c0.1-1.3-0.4-2.5-1.3-3.5c-1-0.9-2.2-1.3-3.5-1.3h-5.8L89.3,43.7z"
			/>
		<path class="st2" d="M115.4,24.9h17.9c1.8,0,3.7,0.3,5.4,1c1.5,0.6,2.9,1.6,4.1,2.8c1.1,1.3,2,2.7,2.6,4.4
			c0.6,1.8,0.9,3.7,0.9,5.5c0,1.9-0.3,3.8-0.9,5.7c-0.5,1.7-1.4,3.2-2.5,4.5c-1.1,1.3-2.5,2.3-4.1,3c-1.7,0.7-3.6,1.1-5.5,1.1h-7.9
			v9.3h-10L115.4,24.9z M125.4,43.7h5.8c1.3,0.1,2.6-0.4,3.5-1.4c0.9-1,1.4-2.3,1.3-3.6c0.1-1.3-0.4-2.5-1.3-3.5
			c-0.9-0.9-2.2-1.3-3.5-1.3h-5.8V43.7z"/>
		<path class="st2" d="M178.9,24.9V34h-17.4v5.1h16.2v9.1h-16.2v4.9h17.5v9.1h-27.5V24.9H178.9z"/>
		<path class="st2" d="M195.6,24.9v28.2h15.2v9.1h-25.2V24.9H195.6z"/>
		<path class="st2" d="M228.4,53.6c0.5,0,1,0,1.5-0.1c0.5-0.1,0.9-0.2,1.4-0.4c0.4-0.2,0.7-0.4,1-0.7c0.3-0.4,0.4-0.8,0.4-1.3
			c0-0.5-0.4-0.9-1.3-1.3c-1.3-0.5-2.6-0.9-3.9-1.2c-4.4-1.1-7.6-2.7-9.6-4.9c-2.1-2.2-3.2-5.2-3.1-8.3c0-1.7,0.3-3.4,1.1-4.9
			c0.7-1.4,1.7-2.6,3-3.5c1.3-1,2.8-1.7,4.4-2.1c1.7-0.5,3.5-0.7,5.4-0.7c2.3,0,4.6,0.1,6.8,0.3c2.3,0.2,4.5,0.8,6.6,1.7l-2,8.9
			c-1.8-0.5-3.6-0.8-5.4-1c-1.9-0.2-3.7-0.3-5.6-0.3c-0.8,0-1.5,0.1-2.2,0.5c-0.7,0.3-1.1,0.9-1,1.7c0,1.3,1.7,2.4,5.2,3.4
			c4.1,1.1,7.2,2.7,9.2,4.6c2,1.9,3.1,4.7,3.1,7.5c0,1.8-0.4,3.5-1.2,5c-0.7,1.4-1.8,2.7-3.1,3.7c-1.3,1-2.9,1.8-4.5,2.2
			c-1.8,0.5-3.6,0.8-5.5,0.7c-2.6,0-5.1-0.1-7.7-0.4c-2.5-0.2-5.1-0.7-7.5-1.3l2-8.9C219.9,53.1,224.1,53.6,228.4,53.6z"/>
		<path class="st2" d="M69.4,121.4c0-0.1,0.1-0.2,0.2-0.2c0,0,0,0,0,0h5.6c2.8,0,4.6,1.2,5.4,3.5c0.3,0.9,0.4,1.8,0.4,4.7
			s-0.1,3.8-0.4,4.7c-0.8,2.3-2.6,3.5-5.4,3.5h-5.6c-0.1,0-0.2-0.1-0.2-0.2c0,0,0,0,0,0V121.4z M71.7,135.7h3c2,0,3.2-0.6,3.8-2.3
			c0.3-1.3,0.5-2.7,0.3-4c0.1-1.3,0-2.7-0.3-4c-0.5-1.6-1.8-2.3-3.8-2.3h-3c-0.1,0-0.1,0-0.2,0.1c0,0,0,0,0,0v12.2
			C71.6,135.7,71.6,135.7,71.7,135.7L71.7,135.7z"/>
		<path class="st2" d="M84.4,132v-10.6c0-0.1,0.1-0.2,0.2-0.2c0,0,0,0,0,0h1.7c0.1,0,0.2,0.1,0.2,0.2c0,0,0,0,0,0V132
			c0,2.7,1.5,4,3.7,4s3.7-1.4,3.7-4v-10.5c0-0.1,0.1-0.2,0.2-0.2c0,0,0,0,0,0h1.7c0.1,0,0.2,0.1,0.2,0.2c0,0,0,0,0,0V132
			c0,3.9-2.2,6-5.8,6S84.4,135.9,84.4,132z"/>
		<path class="st2" d="M105.3,129.5c-0.1-1.6,0-3.1,0.4-4.6c0.7-2.4,3-4.1,5.5-3.9c2.3-0.1,4.4,1.2,5.3,3.3c0.1,0.1,0,0.3-0.1,0.3
			l-1.4,0.7c-0.1,0.1-0.3,0-0.3-0.1c0,0,0,0,0,0c-0.6-1.4-1.9-2.2-3.4-2.2c-1.6-0.1-3,0.9-3.4,2.4c-0.3,1.3-0.4,2.7-0.3,4.1
			c-0.1,1.4,0,2.7,0.3,4.1c0.4,1.5,1.8,2.5,3.4,2.4c1.5,0,2.8-0.8,3.4-2.2c0-0.1,0.2-0.2,0.3-0.1c0,0,0,0,0,0l1.4,0.7
			c0.1,0.1,0.2,0.2,0.1,0.3c-0.9,2.1-3,3.4-5.3,3.3c-2.5,0.2-4.8-1.5-5.5-3.9C105.4,132.6,105.2,131,105.3,129.5z"/>
		<path class="st2" d="M119.1,129.5c-0.1-1.6,0-3.1,0.4-4.6c0.7-2.4,3-4.1,5.5-3.9c2.3-0.1,4.4,1.2,5.3,3.3c0.1,0.1,0,0.3-0.1,0.3
			l-1.5,0.7c-0.1,0.1-0.3,0-0.3-0.1c0,0,0,0,0,0c-0.6-1.3-1.9-2.2-3.4-2.2c-1.6-0.1-3,0.9-3.4,2.4c-0.3,1.3-0.4,2.7-0.3,4.1
			c-0.1,1.4,0,2.7,0.3,4.1c0.4,1.5,1.9,2.5,3.4,2.4c1.5,0,2.8-0.8,3.4-2.2c0.1-0.1,0.2-0.2,0.3-0.1c0,0,0,0,0,0l1.5,0.7
			c0.1,0.1,0.2,0.2,0.1,0.3c-0.9,2.1-3,3.4-5.3,3.3c-2.5,0.2-4.8-1.5-5.5-3.9C119.1,132.6,118.9,131,119.1,129.5z"/>
		<path class="st2" d="M132.8,129.5c-0.1-1.6,0-3.1,0.4-4.6c0.7-2.4,3-4.1,5.5-3.9c2.3-0.1,4.4,1.2,5.3,3.3c0.1,0.1,0,0.3-0.1,0.3
			l-1.5,0.7c-0.1,0.1-0.3,0-0.3-0.1c0,0,0,0,0,0c-0.6-1.4-1.9-2.2-3.4-2.2c-1.6-0.1-3,0.9-3.4,2.4c-0.3,1.3-0.4,2.7-0.3,4.1
			c-0.1,1.4,0,2.7,0.3,4.1c0.4,1.5,1.9,2.5,3.4,2.4c1.5,0,2.8-0.8,3.4-2.2c0-0.1,0.2-0.2,0.3-0.1c0,0,0,0,0,0l1.5,0.7
			c0.1,0.1,0.2,0.2,0.1,0.3c-0.9,2.1-3,3.4-5.3,3.3c-2.5,0.2-4.8-1.4-5.5-3.9C132.8,132.6,132.7,131,132.8,129.5z"/>
		<path class="st2" d="M151.4,121.4c0.1-0.2,0.1-0.2,0.3-0.2h1.6c0.2,0,0.3,0.1,0.3,0.2l5.7,16c0,0.1,0,0.2-0.1,0.2c0,0-0.1,0-0.1,0
			h-1.7c-0.2,0-0.3-0.1-0.3-0.2l-1.3-3.6h-6.7l-1.3,3.6c-0.1,0.2-0.2,0.2-0.3,0.2h-1.7c-0.1,0-0.2,0-0.2-0.1c0,0,0-0.1,0-0.1
			L151.4,121.4z M155.1,131.9l-2.6-7.5l0,0l-2.6,7.5H155.1z"/>
		<path class="st2" d="M160.6,132v-1.4c0-0.1,0.1-0.2,0.2-0.2c0,0,0,0,0,0h6.5c0.1,0,0.2,0.1,0.2,0.2c0,0,0,0,0,0v1.4
			c0,0.1-0.1,0.2-0.2,0.2c0,0,0,0,0,0h-6.5C160.8,132.3,160.6,132.2,160.6,132C160.6,132,160.6,132,160.6,132z"/>
		<path class="st2" d="M170.8,121.4c0-0.1,0.1-0.2,0.2-0.2c0,0,0,0,0,0h5.9c3.3,0,5,1.7,5,4.3c0.1,1.6-0.8,3-2.2,3.6l0,0
			c1.6,0.6,2.6,2.1,2.5,3.8c0,3.1-1.9,4.7-5.4,4.7H171c-0.1,0-0.2-0.1-0.2-0.2c0,0,0,0,0,0L170.8,121.4z M176.8,128.3
			c1.8,0,2.9-1,2.9-2.6s-1.1-2.6-2.9-2.6H173c-0.1,0-0.1,0-0.1,0.1v4.9c0,0.1,0,0.1,0.1,0.1H176.8z M173,135.8h3.9c2,0,3-1.1,3-2.7
			s-1.1-2.7-3-2.7H173c-0.1,0-0.1,0-0.1,0.1c0,0,0,0,0,0v5.1C172.9,135.7,173,135.8,173,135.8L173,135.8z"/>
		<path class="st2" d="M189.1,137.7c-0.1,0-0.2-0.1-0.2-0.2c0,0,0,0,0,0v-14.1c0-0.1,0-0.1-0.1-0.2c0,0,0,0,0,0h-4.5
			c-0.1,0-0.2-0.1-0.2-0.2c0,0,0,0,0,0v-1.5c0-0.1,0.1-0.2,0.2-0.2c0,0,0,0,0,0h11.5c0.1,0,0.2,0.1,0.2,0.2c0,0,0,0,0,0v1.5
			c0,0.1-0.1,0.2-0.2,0.2c0,0,0,0,0,0h-4.5c-0.1,0-0.1,0-0.1,0.1c0,0,0,0,0,0v14.1c0,0.1-0.1,0.2-0.2,0.2c0,0,0,0,0,0L189.1,137.7z"
			/>
		<path class="st2" d="M198.7,137.7c-0.1,0-0.2-0.1-0.2-0.2c0,0,0,0,0,0v-16c0-0.1,0.1-0.2,0.2-0.2c0,0,0,0,0,0h5.9
			c3.2,0,5.2,1.9,5.2,4.9c0,3-2.1,4.9-5.2,4.9h-3.8c-0.1,0-0.1,0-0.1,0.1c0,0,0,0,0,0v6.3c0,0.1-0.1,0.2-0.2,0.2c0,0,0,0,0,0
			L198.7,137.7z M207.7,126.1c0-1.8-1.2-2.9-3.2-2.9h-3.7c-0.1,0-0.1,0-0.1,0.1c0,0,0,0,0,0v5.5c0,0.1,0,0.1,0.1,0.1c0,0,0,0,0,0
			h3.7C206.5,129.1,207.7,127.9,207.7,126.1L207.7,126.1z"/>
		<path class="st2" d="M34.9,0.5c0-0.1,0.1-0.2,0.2-0.2c0,0,0,0,0,0h1.6c0.1,0,0.2,0.1,0.2,0.2c0,0,0,0,0,0v13.7
			c0,0.1,0,0.1,0.1,0.1c0,0,0,0,0,0h7.6c0.1,0,0.2,0.1,0.2,0.2c0,0,0,0,0,0V16c0,0.1-0.1,0.2-0.2,0.2c0,0,0,0,0,0h-9.6
			c-0.1,0-0.2-0.1-0.2-0.2c0,0,0,0,0,0V0.5z"/>
		<path class="st2" d="M47.6,0.5c0-0.1,0.1-0.2,0.2-0.2c0,0,0,0,0,0h9.6c0.1,0,0.2,0.1,0.2,0.2c0,0,0,0,0,0V2c0,0.1-0.1,0.2-0.2,0.2
			c0,0,0,0,0,0h-7.6c-0.1,0-0.1,0-0.1,0.1c0,0,0,0,0,0v4.7c0,0.1,0,0.1,0.1,0.1c0,0,0,0,0,0h6.5c0.1,0,0.2,0.1,0.2,0.2c0,0,0,0,0,0
			v1.5c0,0.1-0.1,0.2-0.2,0.2c0,0,0,0,0,0h-6.5c-0.1,0-0.1,0-0.1,0.1v4.9c0,0.1,0,0.1,0.1,0.1c0,0,0,0,0,0h7.6
			c0.1,0,0.2,0.1,0.2,0.2c0,0,0,0,0,0V16c0,0.1-0.1,0.2-0.2,0.2c0,0,0,0,0,0h-9.6c-0.1,0-0.2-0.1-0.2-0.2c0,0,0,0,0,0V0.5z"/>
		<path class="st2" d="M60,14.5c-0.1-0.1-0.1-0.3,0-0.4l1-1.2c0.1-0.1,0.2-0.1,0.3,0c0,0,0,0,0,0c1.3,1,2.8,1.6,4.5,1.6
			c2.2,0,3.5-1.1,3.5-2.7c0-1.4-0.8-2.3-3.3-2.6l-0.8-0.1c-3.1-0.4-4.7-1.9-4.7-4.4c0-2.8,2-4.7,5.2-4.7c1.7,0,3.4,0.5,4.9,1.5
			c0.1,0.1,0.2,0.2,0,0.3l-0.8,1.3c-0.1,0.1-0.2,0.1-0.3,0C68.3,2.4,67,2,65.7,2c-2,0-3,1.1-3,2.6c0,1.3,0.9,2.2,3.4,2.6l0.8,0.1
			c3.1,0.4,4.7,1.9,4.7,4.5c0,2.8-2,4.8-5.8,4.8C63.6,16.6,61.6,15.9,60,14.5z"/>
		<path class="st2" d="M258.3,46.1c0-0.1,0.1-0.2,0.3-0.2h1.5c0.1,0,0.3,0.1,0.3,0.2l5.5,15.5c0,0.2,0,0.2-0.2,0.2h-1.6
			c-0.1,0-0.3-0.1-0.3-0.2l-1.2-3.5h-6.5l-1.2,3.5c-0.1,0.2-0.2,0.2-0.3,0.2h-1.6c-0.1,0-0.2-0.1-0.2-0.2L258.3,46.1z M258.7,44
			c-0.2,0-0.3-0.1-0.4-0.2l-2.5-2.5c-0.1-0.1-0.1-0.2,0.1-0.2h1.7c0.2,0,0.3,0.1,0.4,0.2l2,2.5c0.1,0.1,0,0.2-0.1,0.2L258.7,44z
			 M261.9,56.2l-2.5-7.2l0,0l-2.5,7.3L261.9,56.2z"/>
	</g>
</g>
</svg>
